<?xml version="1.0" ?><svg id="Layer_1" style="enable-background:new 0 0 512 512;" version="1.1" viewBox="0 0 512 512" xml:space="preserve" xmlns="http://www.w3.org/2000/svg" xmlns:xlink="http://www.w3.org/1999/xlink"><g><polyline id="XMLID_5_" points="144.4,118.8 144.4,214.1 47.1,214.1  "/><g><path d="M460.1,37.4l-43-26.7c-14.7-9.1-34-4.6-43.1,10.1l-3.2,5.1L467,85.5l3.2-5.1    C479.3,65.7,474.7,46.5,460.1,37.4z" id="XMLID_4_"/><path d="M258,208l0.2,0.1c-0.4,0.6-0.6,1.3-0.7,2l-15.1,121.8c-0.2,1.9,0.7,3.8,2.3,4.9c1.7,1,3.8,1,5.4-0.1L352.5,269    c0.6-0.4,1.1-0.9,1.5-1.6l0.2,0.1L460,96.8l-96.1-59.6L258,208z M286.1,300.9l-27.8-17.2l8-64.6l74.1,46L286.1,300.9z"/></g><polygon id="XMLID_1_" points="360.6,295 354.7,291.4 341.9,299.9 341.9,486 57.1,486 57.1,214 142.4,128.7 283.6,128.7 296,108.8    134.1,108.8 37.1,205.8 37.1,506 361.8,506 361.8,292.9  "/></g></svg>