<svg xmlns="http://www.w3.org/2000/svg" width="1440" height="900"><path d="M907,346L889,229L668,336Z" fill="#516a67" stroke="#516a67" stroke-width="1.51"/><path d="M889,229L648,145L668,336Z" fill="#60635d" stroke="#60635d" stroke-width="1.51"/><path d="M648,145L536,193L668,336Z" fill="#715e54" stroke="#715e54" stroke-width="1.51"/><path d="M668,336L844,590L907,346Z" fill="#206f72" stroke="#206f72" stroke-width="1.51"/><path d="M770,635L844,590L668,336Z" fill="#007277" stroke="#007277" stroke-width="1.51"/><path d="M907,346L1049,152L889,229Z" fill="#656d67" stroke="#656d67" stroke-width="1.51"/><path d="M889,229L680,-44L648,145Z" fill="#795c51" stroke="#795c51" stroke-width="1.51"/><path d="M1109,430L1049,152L907,346Z" fill="#547371" stroke="#547371" stroke-width="1.51"/><path d="M488,552L770,635L668,336Z" fill="#316d6f" stroke="#316d6f" stroke-width="1.51"/><path d="M536,193L451,316L668,336Z" fill="#6f5f55" stroke="#6f5f55" stroke-width="1.51"/><path d="M907,694L1109,430L844,590Z" fill="#027e83" stroke="#027e83" stroke-width="1.51"/><path d="M844,590L1109,430L907,346Z" fill="#01777c" stroke="#01777c" stroke-width="1.51"/><path d="M648,145L578,-81L536,193Z" fill="#8d5345" stroke="#8d5345" stroke-width="1.51"/><path d="M291,149L302,370L451,316Z" fill="#8a5446" stroke="#8a5446" stroke-width="1.51"/><path d="M944,-61L680,-44L889,229Z" fill="#875d4f" stroke="#875d4f" stroke-width="1.51"/><path d="M451,316L488,552L668,336Z" fill="#58645f" stroke="#58645f" stroke-width="1.51"/><path d="M1049,152L944,-61L889,229Z" fill="#81665b" stroke="#81665b" stroke-width="1.51"/><path d="M770,635L907,694L844,590Z" fill="#037d82" stroke="#037d82" stroke-width="1.51"/><path d="M741,725L907,694L770,635Z" fill="#037e83" stroke="#037e83" stroke-width="1.51"/><path d="M488,552L741,725L770,635Z" fill="#2b7678" stroke="#2b7678" stroke-width="1.51"/><path d="M680,-44L578,-81L648,145Z" fill="#845244" stroke="#845244" stroke-width="1.51"/><path d="M756,-294L578,-81L680,-44Z" fill="#5c4d46" stroke="#5c4d46" stroke-width="1.51"/><path d="M1109,430L1280,334L1049,152Z" fill="#587976" stroke="#587976" stroke-width="1.51"/><path d="M1097,745L1196,484L1109,430Z" fill="#04858a" stroke="#04858a" stroke-width="1.51"/><path d="M451,316L302,370L488,552Z" fill="#696058" stroke="#696058" stroke-width="1.51"/><path d="M291,149L451,316L536,193Z" fill="#8b5447" stroke="#8b5447" stroke-width="1.51"/><path d="M1196,484L1280,334L1109,430Z" fill="#2b8083" stroke="#2b8083" stroke-width="1.51"/><path d="M1049,152L1150,-81L944,-61Z" fill="#836458" stroke="#836458" stroke-width="1.51"/><path d="M377,-79L291,149L536,193Z" fill="#a04739" stroke="#a04739" stroke-width="1.51"/><path d="M944,-61L847,-278L680,-44Z" fill="#5b544e" stroke="#5b544e" stroke-width="1.51"/><path d="M1357,68L1150,-81L1049,152Z" fill="#936d5e" stroke="#936d5e" stroke-width="1.51"/><path d="M907,694L1097,745L1109,430Z" fill="#04858a" stroke="#04858a" stroke-width="1.51"/><path d="M1196,484L1383,568L1280,334Z" fill="#05868b" stroke="#05868b" stroke-width="1.51"/><path d="M838,929L1097,745L907,694Z" fill="#068b90" stroke="#068b90" stroke-width="1.51"/><path d="M488,552L498,767L741,725Z" fill="#497675" stroke="#497675" stroke-width="1.51"/><path d="M741,725L838,929L907,694Z" fill="#04868b" stroke="#04868b" stroke-width="1.51"/><path d="M289,582L498,767L488,552Z" fill="#676e67" stroke="#676e67" stroke-width="1.51"/><path d="M578,-81L377,-79L536,193Z" fill="#94493b" stroke="#94493b" stroke-width="1.51"/><path d="M302,370L289,582L488,552Z" fill="#6c635b" stroke="#6c635b" stroke-width="1.51"/><path d="M149,393L289,582L302,370Z" fill="#7a5b50" stroke="#7a5b50" stroke-width="1.51"/><path d="M1150,-81L847,-278L944,-61Z" fill="#5c5b55" stroke="#5c5b55" stroke-width="1.51"/><path d="M578,-81L332,-195L377,-79Z" fill="#7e4236" stroke="#7e4236" stroke-width="1.51"/><path d="M847,-278L756,-294L680,-44Z" fill="#444e4b" stroke="#444e4b" stroke-width="1.51"/><path d="M291,149L189,200L302,370Z" fill="#994c3d" stroke="#994c3d" stroke-width="1.51"/><path d="M29,-124L189,200L291,149Z" fill="#b92f27" stroke="#b92f27" stroke-width="1.51"/><path d="M1280,334L1357,68L1049,152Z" fill="#79776d" stroke="#79776d" stroke-width="1.51"/><path d="M799,993L838,929L741,725Z" fill="#06898e" stroke="#06898e" stroke-width="1.51"/><path d="M756,-294L589,-308L578,-81Z" fill="#4a4844" stroke="#4a4844" stroke-width="1.51"/><path d="M189,200L149,393L302,370Z" fill="#925041" stroke="#925041" stroke-width="1.51"/><path d="M1150,-81L1207,-326L847,-278Z" fill="#445a58" stroke="#445a58" stroke-width="1.51"/><path d="M1357,68L1269,-132L1150,-81Z" fill="#7d6c61" stroke="#7d6c61" stroke-width="1.51"/><path d="M1280,334L1450,84L1357,68Z" fill="#81796f" stroke="#81796f" stroke-width="1.51"/><path d="M1373,729L1383,568L1196,484Z" fill="#088f94" stroke="#088f94" stroke-width="1.51"/><path d="M1373,729L1196,484L1097,745Z" fill="#078f94" stroke="#078f94" stroke-width="1.51"/><path d="M589,-308L332,-195L578,-81Z" fill="#64443b" stroke="#64443b" stroke-width="1.51"/><path d="M377,-79L29,-124L291,149Z" fill="#a83429" stroke="#a83429" stroke-width="1.51"/><path d="M838,929L1158,909L1097,745Z" fill="#089398" stroke="#089398" stroke-width="1.51"/><path d="M518,1026L799,993L741,725Z" fill="#278689" stroke="#278689" stroke-width="1.51"/><path d="M498,767L518,1026L741,725Z" fill="#4a807f" stroke="#4a807f" stroke-width="1.51"/><path d="M289,582L279,773L498,767Z" fill="#746f66" stroke="#746f66" stroke-width="1.51"/><path d="M119,805L279,773L289,582Z" fill="#886b5f" stroke="#886b5f" stroke-width="1.51"/><path d="M1357,68L1462,-64L1269,-132Z" fill="#806e63" stroke="#806e63" stroke-width="1.51"/><path d="M1492,392L1450,84L1280,334Z" fill="#67807b" stroke="#67807b" stroke-width="1.51"/><path d="M975,1097L1158,909L838,929Z" fill="#0c959a" stroke="#0c959a" stroke-width="1.51"/><path d="M1383,568L1492,392L1280,334Z" fill="#21878a" stroke="#21878a" stroke-width="1.51"/><path d="M1158,909L1373,729L1097,745Z" fill="#09989d" stroke="#09989d" stroke-width="1.51"/><path d="M1383,568L1610,537L1492,392Z" fill="#0b8d92" stroke="#0b8d92" stroke-width="1.51"/><path d="M149,393L82,476L289,582Z" fill="#845a4d" stroke="#845a4d" stroke-width="1.51"/><path d="M-70,345L82,476L149,393Z" fill="#775146" stroke="#775146" stroke-width="1.51"/><path d="M-70,345L149,393L189,200Z" fill="#8c4b3e" stroke="#8c4b3e" stroke-width="1.51"/><path d="M279,773L367,902L498,767Z" fill="#75786f" stroke="#75786f" stroke-width="1.51"/><path d="M1269,-132L1207,-326L1150,-81Z" fill="#56625e" stroke="#56625e" stroke-width="1.51"/><path d="M847,-278L1207,-326L756,-294Z" fill="#285053" stroke="#285053" stroke-width="1.51"/><path d="M756,-294L1207,-326L589,-308Z" fill="#224c4e" stroke="#224c4e" stroke-width="1.51"/><path d="M1240,-312L1207,-326L1269,-132Z" fill="#3e605f" stroke="#3e605f" stroke-width="1.51"/><path d="M1543,-292L1240,-312L1269,-132Z" fill="#446362" stroke="#446362" stroke-width="1.51"/><path d="M1450,84L1462,-64L1357,68Z" fill="#947365" stroke="#947365" stroke-width="1.51"/><path d="M1765,-72L1462,-64L1450,84Z" fill="#8a7468" stroke="#8a7468" stroke-width="1.51"/><path d="M367,902L518,1026L498,767Z" fill="#687e79" stroke="#687e79" stroke-width="1.51"/><path d="M799,993L975,1097L838,929Z" fill="#0c9196" stroke="#0c9196" stroke-width="1.51"/><path d="M1158,909L1334,952L1373,729Z" fill="#0ca0a5" stroke="#0ca0a5" stroke-width="1.51"/><path d="M640,1132L975,1097L799,993Z" fill="#0d9095" stroke="#0d9095" stroke-width="1.51"/><path d="M82,476L119,805L289,582Z" fill="#8b6254" stroke="#8b6254" stroke-width="1.51"/><path d="M279,773L111,904L367,902Z" fill="#8a7568" stroke="#8a7568" stroke-width="1.51"/><path d="M367,902L510,1095L518,1026Z" fill="#6a817b" stroke="#6a817b" stroke-width="1.51"/><path d="M253,1123L510,1095L367,902Z" fill="#7b7f77" stroke="#7b7f77" stroke-width="1.51"/><path d="M518,1026L640,1132L799,993Z" fill="#39898b" stroke="#39898b" stroke-width="1.51"/><path d="M510,1095L640,1132L518,1026Z" fill="#578785" stroke="#578785" stroke-width="1.51"/><path d="M1310,1158L1334,952L1158,909Z" fill="#11a3a8" stroke="#11a3a8" stroke-width="1.51"/><path d="M1373,729L1610,537L1383,568Z" fill="#0c9398" stroke="#0c9398" stroke-width="1.51"/><path d="M1492,392L1779,126L1450,84Z" fill="#7b8077" stroke="#7b8077" stroke-width="1.51"/><path d="M1663,547L1610,537L1594,811Z" fill="#11999e" stroke="#11999e" stroke-width="1.51"/><path d="M82,476L-66,496L119,805Z" fill="#755d53" stroke="#755d53" stroke-width="1.51"/><path d="M-84,202L-70,345L189,200Z" fill="#884437" stroke="#884437" stroke-width="1.51"/><path d="M332,-195L29,-124L377,-79Z" fill="#8d352a" stroke="#8d352a" stroke-width="1.51"/><path d="M35,-215L29,-124L332,-195Z" fill="#852e25" stroke="#852e25" stroke-width="1.51"/><path d="M-70,345L-66,496L82,476Z" fill="#655149" stroke="#655149" stroke-width="1.51"/><path d="M29,-124L-84,202L189,200Z" fill="#a33329" stroke="#a33329" stroke-width="1.51"/><path d="M-70,345L-204,329L-66,496Z" fill="#5c4b44" stroke="#5c4b44" stroke-width="1.51"/><path d="M-7,873L111,904L119,805Z" fill="#856d62" stroke="#856d62" stroke-width="1.51"/><path d="M119,805L111,904L279,773Z" fill="#946f61" stroke="#946f61" stroke-width="1.51"/><path d="M1610,537L1771,383L1492,392Z" fill="#1f8c91" stroke="#1f8c91" stroke-width="1.51"/><path d="M1594,811L1610,537L1373,729Z" fill="#0f9a9f" stroke="#0f9a9f" stroke-width="1.51"/><path d="M-44,-294L35,-215L332,-195Z" fill="#752e25" stroke="#752e25" stroke-width="1.51"/><path d="M29,-124L-30,-119L-84,202Z" fill="#902e25" stroke="#902e25" stroke-width="1.51"/><path d="M35,-215L-30,-119L29,-124Z" fill="#782e25" stroke="#782e25" stroke-width="1.51"/><path d="M1334,952L1594,811L1373,729Z" fill="#0fa1a6" stroke="#0fa1a6" stroke-width="1.51"/><path d="M1240,-312L1543,-292L1207,-326Z" fill="#295e61" stroke="#295e61" stroke-width="1.51"/><path d="M1462,-64L1543,-292L1269,-132Z" fill="#606a64" stroke="#606a64" stroke-width="1.51"/><path d="M1758,-194L1543,-292L1462,-64Z" fill="#5c6c67" stroke="#5c6c67" stroke-width="1.51"/><path d="M1334,952L1571,975L1594,811Z" fill="#14a6ab" stroke="#14a6ab" stroke-width="1.51"/><path d="M975,1097L1141,1213L1158,909Z" fill="#119da2" stroke="#119da2" stroke-width="1.51"/><path d="M640,1132L1141,1213L975,1097Z" fill="#11979c" stroke="#11979c" stroke-width="1.51"/><path d="M111,904L253,1123L367,902Z" fill="#8e786b" stroke="#8e786b" stroke-width="1.51"/><path d="M-129,805L-7,873L119,805Z" fill="#746960" stroke="#746960" stroke-width="1.51"/><path d="M183,1183L253,1123L111,904Z" fill="#997869" stroke="#997869" stroke-width="1.51"/><path d="M510,1095L183,1183L640,1132Z" fill="#70847f" stroke="#70847f" stroke-width="1.51"/><path d="M640,1132L183,1183L1141,1213Z" fill="#3a8d8f" stroke="#3a8d8f" stroke-width="1.51"/><path d="M1663,547L1771,383L1610,537Z" fill="#109095" stroke="#109095" stroke-width="1.51"/><path d="M1903,508L1771,383L1663,547Z" fill="#119297" stroke="#119297" stroke-width="1.51"/><path d="M-66,496L-129,805L119,805Z" fill="#6b6058" stroke="#6b6058" stroke-width="1.51"/><path d="M-84,202L-204,329L-70,345Z" fill="#6c453b" stroke="#6c453b" stroke-width="1.51"/><path d="M-237,156L-204,329L-84,202Z" fill="#6c3f36" stroke="#6c3f36" stroke-width="1.51"/><path d="M1141,1213L1310,1158L1158,909Z" fill="#13a3a8" stroke="#13a3a8" stroke-width="1.51"/><path d="M1771,383L1779,126L1492,392Z" fill="#628783" stroke="#628783" stroke-width="1.51"/><path d="M1571,975L1681,810L1594,811Z" fill="#15a7ac" stroke="#15a7ac" stroke-width="1.51"/><path d="M1594,811L1681,810L1663,547Z" fill="#139fa4" stroke="#139fa4" stroke-width="1.51"/><path d="M35,-215L-44,-294L-30,-119Z" fill="#682d25" stroke="#682d25" stroke-width="1.51"/><path d="M-30,-119L-237,156L-84,202Z" fill="#8a3228" stroke="#8a3228" stroke-width="1.51"/><path d="M589,-308L-44,-294L332,-195Z" fill="#6b362e" stroke="#6b362e" stroke-width="1.51"/><path d="M-307,-321L-44,-294L589,-308Z" fill="#612d26" stroke="#612d26" stroke-width="1.51"/><path d="M1495,1216L1571,975L1334,952Z" fill="#17a9ae" stroke="#17a9ae" stroke-width="1.51"/><path d="M-217,-120L-237,156L-30,-119Z" fill="#772f25" stroke="#772f25" stroke-width="1.51"/><path d="M-294,686L-129,805L-66,496Z" fill="#4e5956" stroke="#4e5956" stroke-width="1.51"/><path d="M-26,1107L183,1183L111,904Z" fill="#8d7468" stroke="#8d7468" stroke-width="1.51"/><path d="M-294,686L-66,496L-336,586Z" fill="#3c5251" stroke="#3c5251" stroke-width="1.51"/><path d="M1779,126L1765,-72L1450,84Z" fill="#9d796a" stroke="#9d796a" stroke-width="1.51"/><path d="M-26,1107L111,904L-7,873Z" fill="#7e6f65" stroke="#7e6f65" stroke-width="1.51"/><path d="M253,1123L183,1183L510,1095Z" fill="#877f75" stroke="#877f75" stroke-width="1.51"/><path d="M1993,-106L1758,-194L1765,-72Z" fill="#71746d" stroke="#71746d" stroke-width="1.51"/><path d="M1765,-72L1758,-194L1462,-64Z" fill="#727169" stroke="#727169" stroke-width="1.51"/><path d="M-44,-294L-217,-120L-30,-119Z" fill="#612d25" stroke="#612d25" stroke-width="1.51"/><path d="M1941,694L1903,508L1663,547Z" fill="#15999e" stroke="#15999e" stroke-width="1.51"/><path d="M1771,383L1967,135L1779,126Z" fill="#7c867e" stroke="#7c867e" stroke-width="1.51"/><path d="M1779,126L1967,135L1765,-72Z" fill="#9d7d6f" stroke="#9d7d6f" stroke-width="1.51"/><path d="M1941,694L1663,547L1681,810Z" fill="#159fa4" stroke="#159fa4" stroke-width="1.51"/><path d="M-129,805L-26,1107L-7,873Z" fill="#6d6b64" stroke="#6d6b64" stroke-width="1.51"/><path d="M1903,508L1931,402L1771,383Z" fill="#289194" stroke="#289194" stroke-width="1.51"/><path d="M-129,805L-369,874L-26,1107Z" fill="#536663" stroke="#536663" stroke-width="1.51"/><path d="M-336,586L-66,496L-204,329Z" fill="#404c4a" stroke="#404c4a" stroke-width="1.51"/><path d="M-336,586L-204,329L-237,156Z" fill="#484541" stroke="#484541" stroke-width="1.51"/><path d="M1810,1001L1941,694L1681,810Z" fill="#18aaaf" stroke="#18aaaf" stroke-width="1.51"/><path d="M1310,1158L1495,1216L1334,952Z" fill="#17a9ae" stroke="#17a9ae" stroke-width="1.51"/><path d="M1141,1213L1495,1216L1310,1158Z" fill="#18aaaf" stroke="#18aaaf" stroke-width="1.51"/><path d="M-307,-321L-336,586L-237,156Z" fill="#66362e" stroke="#66362e" stroke-width="1.51"/><path d="M1931,402L1967,135L1771,383Z" fill="#628b87" stroke="#628b87" stroke-width="1.51"/><path d="M1931,402L2004,906L1967,135Z" fill="#139398" stroke="#139398" stroke-width="1.51"/><path d="M1903,508L1941,694L1931,402Z" fill="#14969b" stroke="#14969b" stroke-width="1.51"/><path d="M1810,1001L1681,810L1571,975Z" fill="#19abb0" stroke="#19abb0" stroke-width="1.51"/><path d="M1643,1227L1810,1001L1571,975Z" fill="#1caeb3" stroke="#1caeb3" stroke-width="1.51"/><path d="M1495,1216L1643,1227L1571,975Z" fill="#1caeb3" stroke="#1caeb3" stroke-width="1.51"/><path d="M1141,1213L1643,1227L1495,1216Z" fill="#1baeb3" stroke="#1baeb3" stroke-width="1.51"/><path d="M-217,-120L-307,-321L-237,156Z" fill="#5b2c25" stroke="#5b2c25" stroke-width="1.51"/><path d="M-44,-294L-307,-321L-217,-120Z" fill="#452a25" stroke="#452a25" stroke-width="1.51"/><path d="M1207,-326L-307,-321L589,-308Z" fill="#473f3a" stroke="#473f3a" stroke-width="1.51"/><path d="M1967,135L1993,-106L1765,-72Z" fill="#8f796d" stroke="#8f796d" stroke-width="1.51"/><path d="M1758,-194L1983,-315L1543,-292Z" fill="#416a6b" stroke="#416a6b" stroke-width="1.51"/><path d="M2004,906L1993,-106L1967,135Z" fill="#618b88" stroke="#618b88" stroke-width="1.51"/><path d="M-336,586L-369,874L-294,686Z" fill="#225558" stroke="#225558" stroke-width="1.51"/><path d="M-294,686L-369,874L-129,805Z" fill="#3a5d5d" stroke="#3a5d5d" stroke-width="1.51"/><path d="M-307,-321L-369,874L-336,586Z" fill="#334342" stroke="#334342" stroke-width="1.51"/><path d="M1993,-106L1983,-315L1758,-194Z" fill="#586f6c" stroke="#586f6c" stroke-width="1.51"/><path d="M1543,-292L1983,-315L1207,-326Z" fill="#2c6466" stroke="#2c6466" stroke-width="1.51"/><path d="M1941,694L2004,906L1931,402Z" fill="#169fa4" stroke="#169fa4" stroke-width="1.51"/><path d="M1810,1001L2004,906L1941,694Z" fill="#19acb1" stroke="#19acb1" stroke-width="1.51"/><path d="M1905,1081L2004,906L1810,1001Z" fill="#1db0b5" stroke="#1db0b5" stroke-width="1.51"/><path d="M1643,1227L1905,1081L1810,1001Z" fill="#1fb2b7" stroke="#1fb2b7" stroke-width="1.51"/><path d="M-26,1107L-363,1222L183,1183Z" fill="#6f726a" stroke="#6f726a" stroke-width="1.51"/><path d="M183,1183L-363,1222L1141,1213Z" fill="#888277" stroke="#888277" stroke-width="1.51"/><path d="M1141,1213L-363,1222L1643,1227Z" fill="#129499" stroke="#129499" stroke-width="1.51"/><path d="M-369,874L-363,1222L-26,1107Z" fill="#426767" stroke="#426767" stroke-width="1.51"/></svg>