<svg xmlns="http://www.w3.org/2000/svg" width="31" height="31" viewBox="0 0 31 31">
  <path fill="#979797" d="M30.9,15.9 C30.9,24.1829504 24.1829504,30.9 15.9,30.9 C7.61704958,30.9 0.9,24.1829504 0.9,15.9 C0.9,7.61704958 7.61704958,0.9 15.9,0.9 C24.1829504,0.9 30.9,7.61704958 30.9,15.9 Z M25.5856106,17.0668682 L25.5856106,14.7331318 L23.3727932,14.0378476 C23.1853688,13.2881499 22.8891173,12.5807739 22.4961306,11.9338573 L23.5723096,9.87218863 L21.9217654,8.2216445 L19.8540508,9.29782346 C19.2131802,8.91088271 18.5118501,8.62067715 17.7621524,8.43325272 L17.0608222,6.20834341 L14.7210399,6.20834341 L14.0197098,8.43325272 C13.276058,8.62067715 12.568682,8.91088271 11.9278114,9.29782346 L9.87823458,8.2216445 L8.2216445,9.87823458 L9.29782346,11.9399033 C8.91088271,12.5868198 8.60858525,13.2881499 8.42116082,14.0438936 L6.20834341,14.7391778 L6.20834341,17.0729141 L8.40906892,17.7681983 C8.59649335,18.523942 8.89274486,19.237364 9.28573156,19.8903265 L8.2216445,21.9217654 L9.87218863,23.5723096 L11.9096735,22.5082225 C12.562636,22.9012092 13.282104,23.2035067 14.0438936,23.3909311 L14.7331318,25.5795647 L17.0729141,25.5795647 L17.7621524,23.3909311 C18.523942,23.2035067 19.237364,22.9012092 19.8963724,22.5082225 L21.9338573,23.5723096 L23.5844015,21.9217654 L22.5203144,19.8782346 C22.9133011,19.2252721 23.2095526,18.5118501 23.396977,17.7561064 L25.5856106,17.0668682 Z M15.9,21.0269649 C13.0765417,21.0269649 10.785127,18.7355502 10.785127,15.9120919 C10.785127,13.0886336 13.0765417,10.7972189 15.9,10.7972189 C18.7234583,10.7972189 21.0088271,13.0886336 21.0088271,15.9120919 C21.0088271,18.7415961 18.7234583,21.0269649 15.9,21.0269649 Z"/>
</svg>
