<?xml version="1.0" encoding="utf-8"?>
<!-- Generator: Adobe Illustrator 19.0.0, SVG Export Plug-In . SVG Version: 6.00 Build 0)  -->
<svg version="1.2" baseProfile="tiny" xmlns="http://www.w3.org/2000/svg" xmlns:xlink="http://www.w3.org/1999/xlink" x="0px"
	 y="0px" viewBox="0 0 913 968" xml:space="preserve">
<g id="Layer_1">
	<image width="913" height="968" xlink:href="ListView.jpg" >
	</image>
	<rect fill="none" stroke="#000000" stroke-miterlimit="10" width="913" height="968"/>
	<rect x="469" y="165" fill="none" stroke="#000000" stroke-width="4" stroke-miterlimit="10" width="192" height="197"/>
	<rect x="259" y="165" fill="none" stroke="#000000" stroke-width="4" stroke-miterlimit="10" width="192" height="197"/>
	<rect x="678" y="165" fill="none" stroke="#000000" stroke-width="4" stroke-miterlimit="10" width="192" height="197"/>
</g>
<g id="Layer_2">
	
		<text transform="matrix(1 0 0 1 21.5738 132.7247)" fill="#0037D5" stroke="#FFFFFF" stroke-miterlimit="10" font-family="'Impact'" font-size="70.4409px">&lt;h1&gt;</text>
	
		<text transform="matrix(1 0 0 1 17.309 48.3091)" fill="#0037D5" stroke="#FFFFFF" stroke-miterlimit="10" font-family="'Impact'" font-size="56.5728px">&lt;h2&gt;</text>
	
		<text transform="matrix(1 0 0 1 257.8571 146.5279)" fill="#0037D5" stroke="#FFFFFF" stroke-miterlimit="10" font-family="'Impact'" font-size="55.5786px">&lt;h2&gt;</text>
	
		<text transform="matrix(1 0 0 1 265.1563 236.8088)" fill="#0037D5" stroke="#FFFFFF" stroke-miterlimit="10" font-family="'Impact'" font-size="78.2313px">&lt;div&gt;</text>
	
		<text transform="matrix(1 0 0 1 684.1563 236.8088)" fill="#0037D5" stroke="#FFFFFF" stroke-miterlimit="10" font-family="'Impact'" font-size="78.2313px">&lt;div&gt;</text>
	
		<text transform="matrix(1 0 0 1 474.8291 199)" fill="#0037D5" stroke="#FFFFFF" stroke-miterlimit="10" font-family="'Impact'" font-size="36px">&lt;h3&gt;</text>
	
		<text transform="matrix(1 0 0 1 478.4619 268)" fill="#0037D5" stroke="#FFFFFF" stroke-miterlimit="10" font-family="'Impact'" font-size="36px">&lt;p&gt;</text>
	
		<text transform="matrix(1 0 0 1 475.9316 231)" fill="#0037D5" stroke="#FFFFFF" stroke-miterlimit="10" font-family="'Impact'" font-size="36px">&lt;hr&gt;</text>
	
		<text transform="matrix(1 0 0 1 43.4648 199)" fill="#0037D5" stroke="#FFFFFF" stroke-miterlimit="10" font-family="'Impact'" font-size="36px">&lt;button&gt;</text>
	
		<text transform="matrix(1 0 0 1 43.4648 263.5)" fill="#0037D5" stroke="#FFFFFF" stroke-miterlimit="10" font-family="'Impact'" font-size="36px">&lt;button&gt;</text>
</g>
</svg>
