<?xml version="1.0" encoding="utf-8"?>
<!-- Generator: Adobe Illustrator 19.0.0, SVG Export Plug-In . SVG Version: 6.00 Build 0)  -->
<svg version="1.2" baseProfile="tiny" xmlns="http://www.w3.org/2000/svg" xmlns:xlink="http://www.w3.org/1999/xlink" x="0px"
	 y="0px" viewBox="0 0 913 968" xml:space="preserve">
<g id="Layer_1">
	<image width="913" height="968" xlink:href="ListView.jpg" >
	</image>
	<rect fill="none" stroke="#000000" stroke-miterlimit="10" width="913" height="968"/>
</g>
<g id="Layer_2">
	<rect fill="#A6FF7B" stroke="#000000" stroke-miterlimit="10" width="913" height="43"/>
	<rect y="43" fill="#006200" stroke="#000000" stroke-miterlimit="10" width="913" height="925"/>
	<rect x="14.1" y="60.1" fill="#628FFF" stroke="#000000" stroke-miterlimit="10" width="217.5" height="885"/>
	<rect x="231.6" y="60.1" fill="#DE000C" stroke="#000000" stroke-miterlimit="10" width="666.4" height="885"/>
	<text transform="matrix(1 0 0 1 342.7451 27.7061)" font-family="'TimesNewRomanPSMT'" font-size="21.2619px">L</text>
	<text transform="matrix(1 0 0 1 355.7328 27.7061)" font-family="'TimesNewRomanPSMT'" font-size="21.2619px">o</text>
	<text transform="matrix(1 0 0 1 366.3637 27.7061)" font-family="'TimesNewRomanPSMT'" font-size="21.2619px">c</text>
	<text transform="matrix(1 0 0 1 375.8007 27.7061)" font-family="'TimesNewRomanPSMT'" font-size="21.2619px">a</text>
	<text transform="matrix(1 0 0 1 385.2377 27.7061)" font-family="'TimesNewRomanPSMT'" font-size="21.2619px">t</text>
	<text transform="matrix(1 0 0 1 391.145 27.7061)" font-family="'TimesNewRomanPSMT'" font-size="21.2619px">i</text>
	<text transform="matrix(1 0 0 1 397.0522 27.7061)" font-family="'TimesNewRomanPSMT'" font-size="21.2619px">o</text>
	<text transform="matrix(1 0 0 1 407.683 27.7061)" font-family="'TimesNewRomanPSMT'" font-size="21.2619px">n</text>
	<text transform="matrix(1 0 0 1 418.3139 27.7061)" font-family="'TimesNewRomanPSMT'" font-size="21.2619px"> </text>
	<text transform="matrix(1 0 0 1 423.6293 27.7061)" font-family="'TimesNewRomanPSMT'" font-size="21.2619px">B</text>
	<text transform="matrix(1 0 0 1 437.811 27.7061)" font-family="'TimesNewRomanPSMT'" font-size="21.2619px">a</text>
	<text transform="matrix(1 0 0 1 447.248 27.7061)" font-family="'TimesNewRomanPSMT'" font-size="21.2619px">r</text>
	<text transform="matrix(1 0 0 1 454.3286 27.7061)" font-family="'TimesNewRomanPSMT'" font-size="21.2619px">:</text>
	<text transform="matrix(1 0 0 1 460.2358 27.7061)" font-family="'TimesNewRomanPSMT'" font-size="21.2619px"> </text>
	<text transform="matrix(1 0 0 1 465.5512 27.7061)" font-family="'TimesNewRomanPSMT'" font-size="21.2619px">&lt;</text>
	<text transform="matrix(1 0 0 1 477.5419 27.7061)" font-family="'TimesNewRomanPSMT'" font-size="21.2619px">T</text>
	<text transform="matrix(1 0 0 1 489.0453 27.7061)" font-family="'TimesNewRomanPSMT'" font-size="21.2619px">o</text>
	<text transform="matrix(1 0 0 1 499.6762 27.7061)" font-family="'TimesNewRomanPSMT'" font-size="21.2619px">p</text>
	<text transform="matrix(1 0 0 1 510.3071 27.7061)" font-family="'TimesNewRomanPSMT'" font-size="21.2619px">N</text>
	<text transform="matrix(1 0 0 1 525.6616 27.7061)" font-family="'TimesNewRomanPSMT'" font-size="21.2619px">a</text>
	<text transform="matrix(1 0 0 1 535.0986 27.7061)" font-family="'TimesNewRomanPSMT'" font-size="21.2619px">v</text>
	<text transform="matrix(1 0 0 1 545.7299 27.7061)" font-family="'TimesNewRomanPSMT'" font-size="21.2619px">&gt;</text>
	<text transform="matrix(1 0 0 1 49.5322 127.7023)" font-family="'TimesNewRomanPSMT'" font-size="36px">Left Nav</text>
	<text transform="matrix(1 0 0 1 66.5918 153.2164)" font-family="'TimesNewRomanPSMT'" font-size="21.2619px">&lt;LeftNav&gt;</text>
	<text transform="matrix(1 0 0 1 420.3438 127.7023)" fill="#FFFFFF" font-family="'TimesNewRomanPSMT'" font-size="48px">MainContent</text>
	<text transform="matrix(1 0 0 1 493.6689 153.2164)" fill="#FFFFFF" font-family="'TimesNewRomanPSMT'" font-size="21.2619px">&lt;NotesList&gt;</text>
	<text transform="matrix(1 0 0 1 496.6274 178.7306)" fill="#FFFFFF" font-family="'TimesNewRomanPSMT'" font-size="21.2619px">&lt;EditNote&gt;</text>
	<text transform="matrix(1 0 0 1 486.604 204.2452)" fill="#FFFFFF" font-family="'TimesNewRomanPSMT'" font-size="21.2619px">&lt;CreateNote&gt;</text>
</g>
</svg>
